REM DIRINDEX 1\6,1\2\7,1\2\8,1\2\9,1\3\10,1\3\11,1\4\12,1\4\13,1\4\14,1\5\15,1\5\16,1\5\17
REM DIRNAME folder01,folder02,folder03,folder04,folder05,folder06,folder07,folder08,folder09,folder10,folder11,folder12,folder13,folder14,folder15,folder16,folder17
TITLE ""
FILE "3Q_t2_0158-0173.mp3" MP3
  TRACK 01 AUDIO
    TITLE "7:cjc041_3886"
    INDEX 01 00:00:00
  TRACK 02 AUDIO
    TITLE "0:"
    INDEX 01 00:00:74
  TRACK 03 AUDIO
    TITLE "8:cjc041_3887"
    INDEX 01 00:01:56
  TRACK 04 AUDIO
    TITLE "0:"
    INDEX 01 00:03:63
  TRACK 05 AUDIO
    TITLE "9:cjc041_3888"
    INDEX 01 00:04:36
  TRACK 06 AUDIO
    TITLE "0:"
    INDEX 01 00:05:50
  TRACK 07 AUDIO
    TITLE "7:cjc041_3889"
    INDEX 01 00:07:35
  TRACK 08 AUDIO
    TITLE "0:"
    INDEX 01 00:08:50
  TRACK 09 AUDIO
    TITLE "8:cjc041_3890"
    INDEX 01 00:09:30
  TRACK 10 AUDIO
    TITLE "0:"
    INDEX 01 00:10:74
  TRACK 11 AUDIO
    TITLE "9:cjc041_3891"
    INDEX 01 00:11:50
  TRACK 12 AUDIO
    TITLE "0:"
    INDEX 01 00:12:71
  TRACK 13 AUDIO
    TITLE "7:cjc041_3892"
    INDEX 01 00:14:53
  TRACK 14 AUDIO
    TITLE "0:"
    INDEX 01 00:15:60
  TRACK 15 AUDIO
    TITLE "8:cjc041_3893"
    INDEX 01 00:16:38
  TRACK 16 AUDIO
    TITLE "0:"
    INDEX 01 00:17:39
  TRACK 17 AUDIO
    TITLE "9:cjc041_3894"
    INDEX 01 00:18:17
  TRACK 18 AUDIO
    TITLE "0:"
    INDEX 01 00:19:26
  TRACK 19 AUDIO
    TITLE "7:cjc041_3895"
    INDEX 01 00:21:04
  TRACK 20 AUDIO
    TITLE "0:"
    INDEX 01 00:22:11
  TRACK 21 AUDIO
    TITLE "8:cjc041_3896"
    INDEX 01 00:22:66
  TRACK 22 AUDIO
    TITLE "0:"
    INDEX 01 00:25:27
  TRACK 23 AUDIO
    TITLE "9:cjc041_3897"
    INDEX 01 00:26:03
  TRACK 24 AUDIO
    TITLE "0:"
    INDEX 01 00:27:12
  TRACK 25 AUDIO
    TITLE "7:cjc041_3898"
    INDEX 01 00:28:68
  TRACK 26 AUDIO
    TITLE "0:"
    INDEX 01 00:30:08
  TRACK 27 AUDIO
    TITLE "8:cjc041_3899"
    INDEX 01 00:30:61
  TRACK 28 AUDIO
    TITLE "0:"
    INDEX 01 00:32:05
  TRACK 29 AUDIO
    TITLE "9:cjc041_3900"
    INDEX 01 00:32:56
  TRACK 30 AUDIO
    TITLE "0:"
    INDEX 01 00:33:71
  TRACK 31 AUDIO
    TITLE "7:cjc041_3901"
    INDEX 01 00:35:51
  TRACK 32 AUDIO
    TITLE "0:"
    INDEX 01 00:36:62
  TRACK 33 AUDIO
    TITLE "8:cjc041_3902"
    INDEX 01 00:37:46
  TRACK 34 AUDIO
    TITLE "0:"
    INDEX 01 00:39:60
  TRACK 35 AUDIO
    TITLE "9:cjc041_3903"
    INDEX 01 00:40:36
  TRACK 36 AUDIO
    TITLE "0:"
    INDEX 01 00:41:53
  TRACK 37 AUDIO
    TITLE "7:cjc041_3904"
    INDEX 01 00:43:35
  TRACK 38 AUDIO
    TITLE "0:"
    INDEX 01 00:44:50
  TRACK 39 AUDIO
    TITLE "8:cjc041_3905"
    INDEX 01 00:45:26
  TRACK 40 AUDIO
    TITLE "0:"
    INDEX 01 00:46:35
  TRACK 41 AUDIO
    TITLE "9:cjc041_3906"
    INDEX 01 00:47:13
  TRACK 42 AUDIO
    TITLE "0:"
    INDEX 01 00:48:32
  TRACK 43 AUDIO
    TITLE "7:cjc041_3907"
    INDEX 01 00:50:15
  TRACK 44 AUDIO
    TITLE "0:"
    INDEX 01 00:51:38
  TRACK 45 AUDIO
    TITLE "8:cjc041_3908"
    INDEX 01 00:52:12
  TRACK 46 AUDIO
    TITLE "0:"
    INDEX 01 00:53:23
  TRACK 47 AUDIO
    TITLE "9:cjc041_3909"
    INDEX 01 00:54:03
  TRACK 48 AUDIO
    TITLE "0:"
    INDEX 01 00:55:24
  TRACK 49 AUDIO
    TITLE "7:cjc041_3910"
    INDEX 01 00:57:05
  TRACK 50 AUDIO
    TITLE "0:"
    INDEX 01 00:58:24
  TRACK 51 AUDIO
    TITLE "8:cjc041_3911"
    INDEX 01 00:59:00
  TRACK 52 AUDIO
    TITLE "0:"
    INDEX 01 01:00:72
  TRACK 53 AUDIO
    TITLE "9:cjc041_3912"
    INDEX 01 01:01:48
  TRACK 54 AUDIO
    TITLE "0:"
    INDEX 01 01:02:71
  TRACK 55 AUDIO
    TITLE "7:cjc041_3913"
    INDEX 01 01:04:48
  TRACK 56 AUDIO
    TITLE "0:"
    INDEX 01 01:05:71
  TRACK 57 AUDIO
    TITLE "8:cjc041_3914"
    INDEX 01 01:06:47
  TRACK 58 AUDIO
    TITLE "0:"
    INDEX 01 01:07:41
  TRACK 59 AUDIO
    TITLE "9:cjc041_3915"
    INDEX 01 01:08:21
  TRACK 60 AUDIO
    TITLE "0:"
    INDEX 01 01:09:44
  TRACK 61 AUDIO
    TITLE "7:cjc041_3916"
    INDEX 01 01:11:25
  TRACK 62 AUDIO
    TITLE "0:"
    INDEX 01 01:12:36
  TRACK 63 AUDIO
    TITLE "8:cjc041_3917"
    INDEX 01 01:13:20
  TRACK 64 AUDIO
    TITLE "0:"
    INDEX 01 01:14:12
  TRACK 65 AUDIO
    TITLE "9:cjc041_3918"
    INDEX 01 01:14:68
  TRACK 66 AUDIO
    TITLE "0:"
    INDEX 01 01:16:09
  TRACK 67 AUDIO
    TITLE "7:cjc041_3919"
    INDEX 01 01:17:67
  TRACK 68 AUDIO
    TITLE "0:"
    INDEX 01 01:18:74
  TRACK 69 AUDIO
    TITLE "8:cjc041_3920"
    INDEX 01 01:19:60
  TRACK 70 AUDIO
    TITLE "0:"
    INDEX 01 01:20:44
  TRACK 71 AUDIO
    TITLE "9:cjc041_3921"
    INDEX 01 01:21:25
  TRACK 72 AUDIO
    TITLE "0:"
    INDEX 01 01:22:35
  TRACK 73 AUDIO
    TITLE "7:cjc041_3922"
    INDEX 01 01:24:22
  TRACK 74 AUDIO
    TITLE "0:"
    INDEX 01 01:25:51
  TRACK 75 AUDIO
    TITLE "8:cjc041_3923"
    INDEX 01 01:26:23
  TRACK 76 AUDIO
    TITLE "0:"
    INDEX 01 01:27:53
  TRACK 77 AUDIO
    TITLE "9:cjc041_3924"
    INDEX 01 01:28:31
  TRACK 78 AUDIO
    TITLE "0:"
    INDEX 01 01:29:56
  TRACK 79 AUDIO
    TITLE "7:cjc041_3925"
    INDEX 01 01:31:34
  TRACK 80 AUDIO
    TITLE "0:"
    INDEX 01 01:32:57
  TRACK 81 AUDIO
    TITLE "8:cjc041_3926"
    INDEX 01 01:33:36
  TRACK 82 AUDIO
    TITLE "0:"
    INDEX 01 01:34:38
  TRACK 83 AUDIO
    TITLE "9:cjc041_3927"
    INDEX 01 01:35:18
  TRACK 84 AUDIO
    TITLE "0:"
    INDEX 01 01:36:41
  TRACK 85 AUDIO
    TITLE "7:cjc041_3928"
    INDEX 01 01:38:24
  TRACK 86 AUDIO
    TITLE "0:"
    INDEX 01 01:39:33
  TRACK 87 AUDIO
    TITLE "8:cjc041_3929"
    INDEX 01 01:40:13
  TRACK 88 AUDIO
    TITLE "0:"
    INDEX 01 01:41:05
  TRACK 89 AUDIO
    TITLE "9:cjc041_3930"
    INDEX 01 01:41:56
  TRACK 90 AUDIO
    TITLE "0:"
    INDEX 01 01:42:65
  TRACK 91 AUDIO
    TITLE "7:cjc041_3931"
    INDEX 01 01:44:50
  TRACK 92 AUDIO
    TITLE "0:"
    INDEX 01 01:45:57
  TRACK 93 AUDIO
    TITLE "8:cjc041_3932"
    INDEX 01 01:46:31
  TRACK 94 AUDIO
    TITLE "0:"
    INDEX 01 01:47:44
  TRACK 95 AUDIO
    TITLE "9:cjc041_3933"
    INDEX 01 01:48:24
  TRACK 96 AUDIO
    TITLE "0:"
    INDEX 01 01:49:32
